<?xml version="1.0" encoding="utf-8"?>
<svg width="191" height="31" viewBox="0 0 191 31" fill="none" xmlns="http://www.w3.org/2000/svg">
<path fill-rule="evenodd" clip-rule="evenodd" d="M84.9895 5.16039H83.2375V15.9424H85.1245C88.2235 15.9424 90.1105 14.1904 90.1105 10.4174C90.1105 7.18239 88.2235 5.16039 84.9895 5.16039ZM80.8105 17.2904V3.94739H85.2585C89.8415 3.94739 92.8065 6.37339 92.8065 10.5514C92.8065 14.9994 89.7065 17.2904 85.5285 17.2904H80.8105Z" fill="#0A0B09"/>
<path fill-rule="evenodd" clip-rule="evenodd" d="M109.383 3.94751V12.1695C109.383 15.6735 107.092 17.5605 103.992 17.5605C100.488 17.5605 98.332 15.5385 98.332 12.1695V3.94751H100.757V11.8995C100.757 14.4605 101.97 15.9425 104.262 15.9425C106.553 15.9425 107.766 14.5945 107.766 11.8995V3.94751H109.383Z" fill="#0A0B09"/>
<path fill-rule="evenodd" clip-rule="evenodd" d="M121.783 3.6778C124.209 3.6778 125.962 4.7558 127.175 6.6428L126.096 7.7208C125.287 6.2388 124.075 5.1598 122.053 5.1598C119.357 5.1598 117.605 7.1818 117.605 10.5518C117.605 14.0558 119.627 15.9428 122.053 15.9428C124.075 15.9428 125.287 14.9988 126.096 13.3818L127.175 14.1908C126.096 16.2118 124.209 17.4248 121.783 17.4248C118.009 17.4248 114.91 14.8648 114.91 10.6858C114.91 6.6428 118.009 3.6778 121.783 3.6778Z" fill="#0A0B09"/>
<path fill-rule="evenodd" clip-rule="evenodd" d="M134.048 10.5515C134.048 14.3255 135.935 16.0775 139.035 16.0775H140.921V5.29551H139.17C135.935 5.16051 134.048 7.18151 134.048 10.5515ZM138.63 17.2905C134.453 17.2905 131.352 14.9995 131.352 10.5515C131.352 6.37351 134.318 3.94751 138.9 3.94751H143.348V17.2905H138.63Z" fill="#0A0B09"/>
<path fill-rule="evenodd" clip-rule="evenodd" d="M154.129 11.7647L152.242 11.2257C149.951 10.5517 148.603 9.60867 148.603 7.58667C148.603 5.29567 150.625 3.67767 153.456 3.67767C155.747 3.67767 157.499 4.62167 158.442 6.10367L157.363 7.18167C156.555 5.83467 155.207 5.02567 153.456 5.02567C151.973 5.02567 150.895 5.69967 150.895 6.91267C150.895 7.99067 151.568 8.52967 153.186 8.93467L155.072 9.47267C157.229 10.0127 158.712 11.0907 158.712 13.1127C158.712 15.8077 156.42 17.4257 153.59 17.4257C151.164 17.4257 149.008 16.3467 148.064 14.5947L149.142 13.6517C150.22 15.2687 151.838 16.0777 153.59 16.0777C155.207 16.0777 156.42 15.4037 156.42 13.9207C156.555 12.7077 155.612 12.3037 154.129 11.7647Z" fill="#0A0B09"/>
<path fill-rule="evenodd" clip-rule="evenodd" d="M169.36 11.7647L167.473 11.2257C165.182 10.5517 163.834 9.60867 163.834 7.58667C163.834 5.29567 165.856 3.67767 168.687 3.67767C170.978 3.67767 172.73 4.62167 173.673 6.10367L172.595 7.18167C171.786 5.83467 170.438 5.02567 168.687 5.02567C167.204 5.02567 166.126 5.69967 166.126 6.91267C166.126 7.99067 166.8 8.52967 168.417 8.93467L170.304 9.47267C172.46 10.0127 173.943 11.0907 173.943 13.1127C173.943 15.8077 171.652 17.4257 168.821 17.4257C166.395 17.4257 164.239 16.3467 163.295 14.5947L164.373 13.6517C165.452 15.2687 167.069 16.0777 168.821 16.0777C170.438 16.0777 171.652 15.4037 171.652 13.9207C171.786 12.7077 170.843 12.3037 169.36 11.7647Z" fill="#0A0B09"/>
<path fill-rule="evenodd" clip-rule="evenodd" d="M180.008 3.94751H189.443V5.29551H182.434V9.74251H187.691V11.0905H182.434V15.9425H189.847V17.2905H180.008V3.94751Z" fill="#0A0B09"/>
<path fill-rule="evenodd" clip-rule="evenodd" d="M20.5843 3.90771C22.7183 3.90771 24.5373 4.79872 25.7613 7.00672L24.9073 7.80471C24.0543 6.09771 22.7923 4.98272 20.6033 4.98272C17.8363 4.98272 15.7213 7.06172 15.7213 10.6247C15.7213 14.3197 18.0963 16.1747 20.5843 16.1747C22.6993 16.1747 24.0163 15.1917 24.9263 13.2977L25.7803 13.8357C24.5553 16.2857 22.7553 17.2707 20.5473 17.2707C16.9843 17.2707 14.0703 14.5787 14.0703 10.6617C14.0703 6.72771 16.9453 3.90771 20.5843 3.90771Z" fill="#1A1919"/>
<path fill-rule="evenodd" clip-rule="evenodd" d="M36.5584 16.3223C39.4154 16.3223 41.3094 14.0593 41.3094 10.5883C41.3094 7.11729 39.4154 4.85429 36.5584 4.85429C33.6994 4.85429 31.8074 7.11729 31.8074 10.5883C31.8074 14.0593 33.6994 16.3223 36.5584 16.3223ZM36.5584 3.90729C40.2514 3.90729 42.9234 6.87729 42.9234 10.5883C42.9234 14.3013 40.2514 17.2703 36.5584 17.2703C32.8644 17.2703 30.1914 14.3013 30.1914 10.5883C30.1914 6.87729 32.8644 3.90729 36.5584 3.90729Z" fill="#1A1919"/>
<path fill-rule="evenodd" clip-rule="evenodd" d="M50.0833 4.09241V16.1014H57.0623V17.0844H48.6543V4.09241H50.0833Z" fill="#1A1919"/>
<path fill-rule="evenodd" clip-rule="evenodd" d="M71.6615 4.09241V5.07741H64.3695V9.92041H69.8615V10.9034H64.3695V16.1014H71.8845V17.0844H62.9395V4.09241H71.6615Z" fill="#1A1919"/>
<path fill-rule="evenodd" clip-rule="evenodd" d="M4.29813 2.729H3.68312C4.58612 1.941 5.37413 1.019 6.00813 0H7.27613C6.41213 1.038 5.41213 1.96 4.29813 2.729ZM8.99112 4.138V5.115H1.74812V9.925H7.20312V10.902H1.74812V16.063H9.21112V17.039H0.328125V4.138H8.99112Z" fill="#1A1919"/>
<path d="M0 28.1792H25.968" stroke="#2B2E6F" stroke-width="0.683" stroke-linejoin="bevel"/>
<path d="M164.355 28.1792H190.323" stroke="#BC2540" stroke-width="0.683" stroke-linejoin="bevel"/>
<path fill-rule="evenodd" clip-rule="evenodd" d="M46.466 26.2971V30.2781H46.062V27.0931L44.498 29.7721H44.3L42.736 27.1101V30.2781H42.332V26.2971H42.679L44.407 29.2481L46.119 26.2971H46.466Z" fill="#1A1919"/>
<path fill-rule="evenodd" clip-rule="evenodd" d="M50.562 28.8731L49.607 26.7351L48.651 28.8731H50.562ZM50.715 29.2141H48.498L48.02 30.2781H47.582L49.402 26.2971H49.817L51.637 30.2781H51.193L50.715 29.2141Z" fill="#1A1919"/>
<path fill-rule="evenodd" clip-rule="evenodd" d="M52.3711 29.7945L52.5361 29.4705C52.8201 29.7485 53.3271 29.9535 53.8491 29.9535C54.5941 29.9535 54.9191 29.6405 54.9191 29.2485C54.9191 28.1565 52.4671 28.8275 52.4671 27.3555C52.4671 26.7695 52.9221 26.2625 53.9351 26.2625C54.3841 26.2625 54.8501 26.3935 55.1691 26.6155L55.0271 26.9505C54.6851 26.7295 54.2871 26.6215 53.9351 26.6215C53.2071 26.6215 52.8831 26.9455 52.8831 27.3435C52.8831 28.4355 55.3341 27.7755 55.3341 29.2255C55.3341 29.8115 54.8671 30.3115 53.8491 30.3115C53.2521 30.3115 52.6671 30.1015 52.3711 29.7945Z" fill="#1A1919"/>
<path fill-rule="evenodd" clip-rule="evenodd" d="M57.4224 26.661H56.0234V26.297H59.2424V26.661H57.8434V30.278H57.4224V26.661Z" fill="#1A1919"/>
<path fill-rule="evenodd" clip-rule="evenodd" d="M63.1841 29.9138V30.2778H60.3691V26.2968H63.0991V26.6608H60.7901V28.0768H62.8491V28.4358H60.7901V29.9138H63.1841Z" fill="#1A1919"/>
<path fill-rule="evenodd" clip-rule="evenodd" d="M67.323 27.6619C67.323 27.0249 66.9019 26.6609 66.1059 26.6609H65.048V28.6569H66.1059C66.9019 28.6569 67.323 28.2879 67.323 27.6619ZM67.3459 30.2779L66.436 28.9979C66.333 29.0099 66.231 29.0149 66.118 29.0149H65.048V30.2779H64.627V26.2969H66.118C67.13 26.2969 67.7439 26.8089 67.7439 27.6619C67.7439 28.2879 67.414 28.7249 66.834 28.9129L67.8059 30.2779H67.3459Z" fill="#1A1919"/>
<path fill-rule="evenodd" clip-rule="evenodd" d="M75.2746 26.2971V30.2781H74.8706V27.0931L73.3076 29.7721H73.1086L71.5446 27.1101V30.2781H71.1406V26.2971H71.4876L73.2166 29.2481L74.9276 26.2971H75.2746Z" fill="#1A1919"/>
<path fill-rule="evenodd" clip-rule="evenodd" d="M80.4348 28.2874C80.4348 27.3374 79.7238 26.6384 78.7688 26.6384C77.8078 26.6384 77.0908 27.3374 77.0908 28.2874C77.0908 29.2374 77.8078 29.9364 78.7688 29.9364C79.7238 29.9364 80.4348 29.2374 80.4348 28.2874ZM76.6758 28.2874C76.6758 27.1274 77.5628 26.2634 78.7688 26.2634C79.9628 26.2634 80.8558 27.1214 80.8558 28.2874C80.8558 29.4534 79.9628 30.3114 78.7688 30.3114C77.5628 30.3114 76.6758 29.4474 76.6758 28.2874Z" fill="#1A1919"/>
<path fill-rule="evenodd" clip-rule="evenodd" d="M84.9499 27.6619C84.9499 27.0249 84.5289 26.6609 83.7329 26.6609H82.6749V28.6569H83.7329C84.5289 28.6569 84.9499 28.2879 84.9499 27.6619ZM84.9729 30.2779L84.0629 28.9979C83.9599 29.0099 83.8579 29.0149 83.7449 29.0149H82.6749V30.2779H82.2539V26.2969H83.7449C84.7569 26.2969 85.3709 26.8089 85.3709 27.6619C85.3709 28.2879 85.0409 28.7249 84.4609 28.9129L85.4329 30.2779H84.9729Z" fill="#1A1919"/>
<path fill-rule="evenodd" clip-rule="evenodd" d="M89.6373 29.9138V30.2778H86.8223V26.2968H89.5523V26.6608H87.2433V28.0768H89.3023V28.4358H87.2433V29.9138H89.6373Z" fill="#1A1919"/>
<path fill-rule="evenodd" clip-rule="evenodd" d="M93.8013 26.661H92.4023V26.297H95.6213V26.661H94.2223V30.278H93.8013V26.661Z" fill="#1A1919"/>
<path fill-rule="evenodd" clip-rule="evenodd" d="M100.075 26.2971V30.2781H99.66V28.4411H97.1691V30.2781H96.748V26.2971H97.1691V28.0711H99.66V26.2971H100.075Z" fill="#1A1919"/>
<path fill-rule="evenodd" clip-rule="evenodd" d="M104.169 28.8731L103.213 26.7351L102.258 28.8731H104.169ZM104.322 29.2141H102.105L101.627 30.2781H101.189L103.009 26.2971H103.424L105.244 30.2781H104.8L104.322 29.2141Z" fill="#1A1919"/>
<path fill-rule="evenodd" clip-rule="evenodd" d="M109.686 26.2971V30.2781H109.339L106.78 27.0481V30.2781H106.359V26.2971H106.706L109.271 29.5271V26.2971H109.686Z" fill="#1A1919"/>
<path fill-rule="evenodd" clip-rule="evenodd" d="M113.033 28.2874C113.033 27.1214 113.92 26.2634 115.12 26.2634C115.699 26.2634 116.223 26.4564 116.575 26.8434L116.308 27.1104C115.984 26.7804 115.586 26.6384 115.131 26.6384C114.17 26.6384 113.448 27.3434 113.448 28.2874C113.448 29.2314 114.17 29.9364 115.131 29.9364C115.586 29.9364 115.984 29.7944 116.308 29.4594L116.575 29.7264C116.223 30.1134 115.699 30.3114 115.114 30.3114C113.92 30.3114 113.033 29.4534 113.033 28.2874Z" fill="#1A1919"/>
<path fill-rule="evenodd" clip-rule="evenodd" d="M121.251 28.2874C121.251 27.3374 120.54 26.6384 119.585 26.6384C118.624 26.6384 117.907 27.3374 117.907 28.2874C117.907 29.2374 118.624 29.9364 119.585 29.9364C120.54 29.9364 121.251 29.2374 121.251 28.2874ZM117.492 28.2874C117.492 27.1274 118.379 26.2634 119.585 26.2634C120.779 26.2634 121.672 27.1214 121.672 28.2874C121.672 29.4534 120.779 30.3114 119.585 30.3114C118.379 30.3114 117.492 29.4474 117.492 28.2874Z" fill="#1A1919"/>
<path fill-rule="evenodd" clip-rule="evenodd" d="M126.478 28.2874C126.478 27.3374 125.767 26.6384 124.812 26.6384C123.851 26.6384 123.134 27.3374 123.134 28.2874C123.134 29.2374 123.851 29.9364 124.812 29.9364C125.767 29.9364 126.478 29.2374 126.478 28.2874ZM122.719 28.2874C122.719 27.1274 123.606 26.2634 124.812 26.2634C126.006 26.2634 126.899 27.1214 126.899 28.2874C126.899 29.4534 126.006 30.3114 124.812 30.3114C123.606 30.3114 122.719 29.4474 122.719 28.2874Z" fill="#1A1919"/>
<path fill-rule="evenodd" clip-rule="evenodd" d="M129.533 28.4069L128.72 29.2319V30.2779H128.299V26.2969H128.72V28.7029L131.057 26.2969H131.54L129.817 28.0999L131.66 30.2779H131.159L129.533 28.4069Z" fill="#1A1919"/>
<path fill-rule="evenodd" clip-rule="evenodd" d="M132.797 30.2782H133.218V26.2972H132.797V30.2782Z" fill="#1A1919"/>
<path fill-rule="evenodd" clip-rule="evenodd" d="M138.298 26.2971V30.2781H137.951L135.392 27.0481V30.2781H134.971V26.2971H135.318L137.883 29.5271V26.2971H138.298Z" fill="#1A1919"/>
<path fill-rule="evenodd" clip-rule="evenodd" d="M142.853 28.2874H143.257V29.8054C142.881 30.1414 142.347 30.3114 141.796 30.3114C140.585 30.3114 139.697 29.4534 139.697 28.2874C139.697 27.1214 140.585 26.2634 141.801 26.2634C142.404 26.2634 142.927 26.4564 143.279 26.8374L143.018 27.1044C142.683 26.7744 142.285 26.6384 141.818 26.6384C140.834 26.6384 140.112 27.3374 140.112 28.2874C140.112 29.2314 140.834 29.9364 141.813 29.9364C142.194 29.9364 142.546 29.8514 142.853 29.6294V28.2874Z" fill="#1A1919"/>
</svg>
